<svg xmlns="http://www.w3.org/2000/svg" xmlns:xlink="http://www.w3.org/1999/xlink" viewBox="0 0 700 806.89"><defs><style>.cls-1{fill:url(#linear-gradient);}.cls-2{fill:url(#linear-gradient-2);}.cls-3{fill:#fff;}.cls-4{fill:url(#linear-gradient-3);}</style><linearGradient id="linear-gradient" y1="515.04" x2="699.99" y2="515.04" gradientUnits="userSpaceOnUse"><stop offset="0" stop-color="#fff" stop-opacity="0.4"/><stop offset="0.92" stop-color="#fff" stop-opacity="0.4"/></linearGradient><linearGradient id="linear-gradient-2" x1="700" y1="610.24" x2="0.01" y2="610.24" gradientUnits="userSpaceOnUse"><stop offset="0" stop-color="#fff" stop-opacity="0.4"/><stop offset="0.92" stop-color="#fff"/></linearGradient><linearGradient id="linear-gradient-3" x1="183.8" y1="122.19" x2="522.01" y2="707.99" xlink:href="#linear-gradient-2"/></defs><g id="Layer_2" data-name="Layer 2"><g id="Layer_1-2" data-name="Layer 1"><path class="cls-1" d="M700,234.47V605.2L345.17,806.79,0,605.15V234.69a11,11,0,0,1,5.81-9.77,10.91,10.91,0,0,1,10.77,0q157.52,94.29,315,188.64c3.07,1.84,6.2,3.68,9.27,5.52a11.14,11.14,0,0,0,11.33.06c3.18-1.84,6.31-3.74,9.49-5.58q84.82-49.83,169.76-99.65l151.74-89A11.14,11.14,0,0,1,700,234.47Z"/><path class="cls-2" d="M700,605.23Q526,705.3,351.88,805.42c0,.05-.06.05-.06.05a10.65,10.65,0,0,1-6.64,1.34,10.15,10.15,0,0,1-4.52-1.45Q170.34,705.3,0,605.17,85.09,556,170.22,506.87,251,460.22,331.61,413.58l9.27,5.53a11.16,11.16,0,0,0,11.33.06c3.18-1.85,6.31-3.75,9.49-5.59Q530.86,509.39,700,605.23Z"/><path class="cls-3" d="M340.88,1.56,16.84,193.3a11.17,11.17,0,0,0,.09,19.27l324,187.56a11.16,11.16,0,0,0,11.14,0L683.22,210.49a11.17,11.17,0,0,0,0-19.38L352.12,1.48A11.16,11.16,0,0,0,340.88,1.56Z"/><path class="cls-4" d="M700,605.23Q526,705.3,351.88,805.42c0,.05-.06.05-.06.05a10.65,10.65,0,0,1-6.64,1.34Q286.4,706,227.55,605.17q-28.63-49.15-57.33-98.3Q88,365.93,5.82,225a10.88,10.88,0,0,1,10.77,0q157.51,94.29,315,188.63l9.27,5.53.06,0a10.79,10.79,0,0,0,11.15.1l.12-.07c3.18-1.85,6.31-3.75,9.49-5.59q84.82-49.81,169.76-99.64Q615.79,459.54,700,605.23Z"/></g></g></svg>