<svg xmlns="http://www.w3.org/2000/svg" xmlns:xlink="http://www.w3.org/1999/xlink" viewBox="0 0 411.79 750"><defs><style>.cls-1{fill:url(#linear-gradient);}.cls-2{fill:url(#linear-gradient-2);}.cls-3,.cls-5{fill:#fff;}.cls-4{fill:url(#linear-gradient-3);}.cls-5{font-size:102.3px;font-family:Muro-Regular, Muro;}</style><linearGradient id="linear-gradient" x1="10.69" y1="295.12" x2="411.79" y2="295.12" gradientUnits="userSpaceOnUse"><stop offset="0" stop-color="#fff" stop-opacity="0.4"/><stop offset="0.92" stop-color="#fff" stop-opacity="0.4"/></linearGradient><linearGradient id="linear-gradient-2" x1="411.79" y1="349.67" x2="10.7" y2="349.67" gradientUnits="userSpaceOnUse"><stop offset="0" stop-color="#fff" stop-opacity="0.4"/><stop offset="0.92" stop-color="#fff"/></linearGradient><linearGradient id="linear-gradient-3" x1="116.01" y1="70.02" x2="309.81" y2="405.68" xlink:href="#linear-gradient-2"/></defs><g id="Layer_2" data-name="Layer 2"><g id="Layer_1-2" data-name="Layer 1"><path class="cls-1" d="M411.79,134.35V346.78L208.47,462.29,10.69,346.75V134.48a6.42,6.42,0,0,1,9.5-5.6L200.7,237l5.31,3.16a6.39,6.39,0,0,0,6.5,0c1.82-1.06,3.61-2.15,5.43-3.2l97.28-57.1,86.94-51A6.38,6.38,0,0,1,411.79,134.35Z"/><path class="cls-2" d="M411.79,346.8q-99.71,57.33-199.47,114.7s0,0,0,0a6.16,6.16,0,0,1-3.81.76,5.85,5.85,0,0,1-2.59-.83Q108.3,404.14,10.7,346.76l97.53-56.33q46.26-26.71,92.48-53.45l5.31,3.17a6.37,6.37,0,0,0,6.49,0c1.82-1.05,3.62-2.14,5.44-3.2Q314.87,291.88,411.79,346.8Z"/><path class="cls-3" d="M206,.89,20.35,110.76a6.4,6.4,0,0,0,0,11L206,229.27a6.38,6.38,0,0,0,6.38,0L402.18,120.61a6.4,6.4,0,0,0,0-11.1L212.46.85A6.39,6.39,0,0,0,206,.89Z"/><path class="cls-4" d="M411.79,346.8q-99.71,57.33-199.47,114.7s0,0,0,0a6.16,6.16,0,0,1-3.81.76q-33.67-57.76-67.4-115.54-16.41-28.15-32.85-56.33Q61.11,209.69,14,128.9a6.2,6.2,0,0,1,6.17,0q90.26,54,180.51,108.08l5.31,3.17,0,0a6.19,6.19,0,0,0,6.39.05l.07,0c1.82-1.05,3.62-2.14,5.44-3.2q48.6-28.54,97.27-57.1Q363.55,263.33,411.79,346.8Z"/><text class="cls-5" transform="translate(0 604.5)">STARTUP<tspan x="43.58" y="121.46">MANCH</tspan></text></g></g></svg>